<svg id="Layer_1" data-name="Layer 1" xmlns="http://www.w3.org/2000/svg" viewBox="0 0 256 256"><defs><style>.cls-1{fill:#066;}.cls-2{fill:#fff;}</style></defs><title>256x256</title><rect class="cls-1" x="12.62" y="12.55" width="231.06" height="231.06" rx="41.52" ry="41.52"/><path class="cls-2" d="M148,192.75V180.34a51.75,51.75,0,0,1-36.23,0v12.41C94.71,194,82.68,197,82.68,200.56c0,4.49,19.46,8.15,44.05,8.44l0.42,0h5.53l0.42,0c24.6-.29,44.05-4,44.05-8.44C177.17,197,165.15,194,148,192.75Z"/><path class="cls-2" d="M71.89,112.51a15.74,15.74,0,0,1-2.18,4.78,12.54,12.54,0,0,1-3.59,3.52l-2.8-4a10.34,10.34,0,0,0,4.08-5.72,3.35,3.35,0,0,0,.1-1.76,1.14,1.14,0,0,0-.84-0.84H66.62a1.1,1.1,0,0,0-.58,0,1.48,1.48,0,0,0-.6.39,5.53,5.53,0,0,0-.71.89q-0.38.57-.88,1.52-0.79,1.47-1.59,2.69a9.2,9.2,0,0,1-1.76,2,5.23,5.23,0,0,1-2.13,1.11,5.29,5.29,0,0,1-2.69-.12H55.63a6.25,6.25,0,0,1-2.38-1.2,5.79,5.79,0,0,1-1.57-2.05A7.36,7.36,0,0,1,51,111a10.47,10.47,0,0,1,.4-3.29,14.61,14.61,0,0,1,1.89-4.31,11.76,11.76,0,0,1,2.93-3l3.11,3.76a11.4,11.4,0,0,0-2.19,2.37,8.61,8.61,0,0,0-1.23,2.6,2.54,2.54,0,0,0,0,1.57,1.12,1.12,0,0,0,.76.73h0.06a1.16,1.16,0,0,0,.63,0,1.46,1.46,0,0,0,.61-0.41,6,6,0,0,0,.7-0.92q0.39-.6.89-1.55a24.6,24.6,0,0,1,1.68-2.81,9.41,9.41,0,0,1,1.82-2,4.92,4.92,0,0,1,2.09-1,5.35,5.35,0,0,1,2.5.14l0.06,0a6.26,6.26,0,0,1,2.53,1.3,6,6,0,0,1,1.56,2.15,7.56,7.56,0,0,1,.58,2.84A11.78,11.78,0,0,1,71.89,112.51Z"/><path class="cls-2" d="M78.69,97.06a9.34,9.34,0,0,1-2.27,2.59,8,8,0,0,1-2.79,1.41,7.36,7.36,0,0,1-3.1.15,8.65,8.65,0,0,1-3.18-1.2l0,0a8.76,8.76,0,0,1-2.44-2.16,7.92,7.92,0,0,1-1.38-2.76,7.68,7.68,0,0,1-.2-3.06,7.85,7.85,0,0,1,1.11-3.06,8.28,8.28,0,0,1,2.43-2.65,7,7,0,0,1,2.88-1.14,7.87,7.87,0,0,1,3.09.18,11.08,11.08,0,0,1,3.06,1.3l0.47,0.29c0.17,0.1.33,0.21,0.48,0.33l-5.46,9a3.23,3.23,0,0,0,2.29,0,3.63,3.63,0,0,0,1.68-1.54,4.33,4.33,0,0,0,.62-1.75,5.83,5.83,0,0,0-.18-2.06l3.74-1.29a8.46,8.46,0,0,1,.53,3.6A8.59,8.59,0,0,1,78.69,97.06Zm-7-6.88a3.49,3.49,0,0,0-2.23-.33A2.44,2.44,0,0,0,67.88,91,2.32,2.32,0,0,0,67.6,93a4.08,4.08,0,0,0,1.29,1.87Z"/><path class="cls-2" d="M88.78,84.74a8.13,8.13,0,0,1-11.57-.18l0,0a8.07,8.07,0,0,1-1.61-8.9,8.71,8.71,0,0,1,2-2.83,7.91,7.91,0,0,1,3.59-2.13,7.77,7.77,0,0,1,3.67,0l-0.77,4.6a4.91,4.91,0,0,0-1.74,0,3,3,0,0,0-1.51.85,2.79,2.79,0,0,0-.7,1.05,3,3,0,0,0-.18,1.22,3.68,3.68,0,0,0,.3,1.24A3.84,3.84,0,0,0,81,80.75l0,0a4.16,4.16,0,0,0,1.14.85,3.57,3.57,0,0,0,1.24.37,2.91,2.91,0,0,0,1.23-.14,3,3,0,0,0,1.11-.69,3,3,0,0,0,.9-1.47,6.56,6.56,0,0,0,.15-1.79l4.51-.63a8.66,8.66,0,0,1-.18,3.79A8.19,8.19,0,0,1,88.78,84.74Z"/><path class="cls-2" d="M98.93,77a5.1,5.1,0,0,1-4.21.54,6,6,0,0,1-3.27-3l-4.92-9L91.4,62.8l4.07,7.47a2.85,2.85,0,0,0,1.47,1.44,2,2,0,0,0,1.73-.18,2.16,2.16,0,0,0,1.1-1.36,2.74,2.74,0,0,0-.38-2l-4.07-7.47L100.19,58l7.52,13.78-4.87,2.66-1-1.89A7.69,7.69,0,0,1,101,75,4.86,4.86,0,0,1,98.93,77Z"/><path class="cls-2" d="M105.48,56.26l5.35-1.44,0.82,3.06a6.47,6.47,0,0,1,1.1-2.94,4.45,4.45,0,0,1,2.8-1.65l1.51,5.6-0.45.12a4.28,4.28,0,0,0-2.89,2.1,5.83,5.83,0,0,0-.08,4.17L114.91,70l-5.35,1.44Z"/><path class="cls-2" d="M118.69,47.65l5.75-.59,0.41,4-5.75.59Zm0.68,5.44,5.51-.57,1.6,15.62-5.51.56Z"/><path class="cls-2" d="M135,68.62a5.86,5.86,0,0,1-3.83-1.42q-1.33-1.27-1.16-4.08l0.38-6.37-1.85-.11,0.26-4.43,1.85,0.11,0.23-4,5.53,0.33-0.23,4,3.65,0.22-0.26,4.43-3.65-.21-0.31,5.3a1.61,1.61,0,0,0,.31,1.22A1.57,1.57,0,0,0,137,64a4,4,0,0,0,1.08-.08,6.29,6.29,0,0,0,1-.32L138.86,68a7.5,7.5,0,0,1-1.75.55A8.44,8.44,0,0,1,135,68.62Z"/><path class="cls-2" d="M143.24,74.36a9.31,9.31,0,0,1-2.49-1.14,12.23,12.23,0,0,1-2-1.61l2.75-3.18a6.62,6.62,0,0,0,1.07,1,3.52,3.52,0,0,0,1,.53,1.79,1.79,0,0,0,.72.08,1.36,1.36,0,0,0,.69-0.32l-1.44-16.56,5.53,1.66,0.28,10,5.56-8.21,5.42,1.63-9.92,13a17.36,17.36,0,0,1-1.7,1.93,6,6,0,0,1-1.65,1.15,4.5,4.5,0,0,1-1.79.4A6.75,6.75,0,0,1,143.24,74.36Z"/><path class="cls-2" d="M164.4,79.35a10.7,10.7,0,0,1-3-2.94,10,10,0,0,1-1.53-3.68,10.56,10.56,0,0,1,1.68-8l0,0a10.61,10.61,0,0,1,6.73-4.51,10.21,10.21,0,0,1,4.06,0,11.08,11.08,0,0,1,4,1.72,12.27,12.27,0,0,1,2.19,1.85,9.77,9.77,0,0,1,1.45,2,9.34,9.34,0,0,1,.83,2.19,11.1,11.1,0,0,1,.3,2.27l-5.35.34a7.33,7.33,0,0,0-.61-2.52,4.75,4.75,0,0,0-1.73-1.94,4.52,4.52,0,0,0-1.86-.75,4.7,4.7,0,0,0-1.9.1,5.38,5.38,0,0,0-1.79.86,6,6,0,0,0-1.47,1.53l0,0a6.23,6.23,0,0,0-.89,2,5.33,5.33,0,0,0-.14,2,4.69,4.69,0,0,0,.62,1.8,4.5,4.5,0,0,0,1.39,1.45,5.55,5.55,0,0,0,1.29.66,4.38,4.38,0,0,0,1.27.24,6.37,6.37,0,0,0,1.28-.08,11.58,11.58,0,0,0,1.34-.3l1.82,4.87a15.24,15.24,0,0,1-2.33.63,9.1,9.1,0,0,1-2.42.11,10.13,10.13,0,0,1-2.56-.57A12.19,12.19,0,0,1,164.4,79.35Z"/><path class="cls-2" d="M175,88.61a6.57,6.57,0,0,1-1.07-1.82,4.94,4.94,0,0,1-.33-1.88,4.27,4.27,0,0,1,.47-1.82,5,5,0,0,1,1.36-1.63l0,0a4.88,4.88,0,0,1,2-1,4.21,4.21,0,0,1,2,0,5.71,5.71,0,0,1,1.94.91,9.26,9.26,0,0,1,1.84,1.76,11.39,11.39,0,0,1,1.18,1.75,11.82,11.82,0,0,1,.73,1.56l0.2-.16a2.37,2.37,0,0,0,1-1.79,3.55,3.55,0,0,0-1-2.26,10.16,10.16,0,0,0-1.61-1.61,14.89,14.89,0,0,0-1.8-1.2l2.3-3.33a17.19,17.19,0,0,1,2.47,1.64,16.38,16.38,0,0,1,2.49,2.52A11.33,11.33,0,0,1,191,83.29a6,6,0,0,1,.41,2.75,5,5,0,0,1-.82,2.33,9.6,9.6,0,0,1-2,2.13l-7,5.7L178.16,92l1.26-1A5.87,5.87,0,0,1,175,88.61ZM178.9,88a2.79,2.79,0,0,0,1.79,1.09,2.43,2.43,0,0,0,1.94-.61l0.56-.46a5.11,5.11,0,0,0-.39-0.94,5.91,5.91,0,0,0-.65-1,2.88,2.88,0,0,0-1.6-1.11,1.73,1.73,0,0,0-1.5.38l0,0a1.53,1.53,0,0,0-.63,1.22A2.13,2.13,0,0,0,178.9,88Z"/><path class="cls-2" d="M197.86,91.72L199.68,97l-2,.7a7.74,7.74,0,0,1,2.26,1.21,4.9,4.9,0,0,1,1.63,2.38,5.36,5.36,0,0,1,.26,2.8,4.57,4.57,0,0,1-1.19,2.32,8.09,8.09,0,0,1,2.51,1.53,6.16,6.16,0,0,1,1.63,2.6,5.19,5.19,0,0,1-.12,4.22,5.93,5.93,0,0,1-3.55,2.74l-9.73,3.38-1.82-5.24,8.06-2.8a2.89,2.89,0,0,0,1.66-1.19,2,2,0,0,0,.11-1.69,2.15,2.15,0,0,0-1.15-1.31,2.71,2.71,0,0,0-2.06,0l-8.06,2.8-1.82-5.24,8.06-2.8a2.88,2.88,0,0,0,1.66-1.19,2,2,0,0,0,.11-1.68,2.11,2.11,0,0,0-1.14-1.3,2.76,2.76,0,0,0-2.05.06l-8.06,2.8L183,96.87Z"/><path class="cls-2" d="M129.93,77a51.65,51.65,0,1,0,51.65,51.65A51.65,51.65,0,0,0,129.93,77Zm12.12,88A38.28,38.28,0,1,1,168.2,128.7,38.16,38.16,0,0,1,142.05,165Z"/><circle class="cls-2" cx="117.01" cy="118.68" r="12.92"/></svg>