<svg id="Layer_1" data-name="Layer 1" xmlns="http://www.w3.org/2000/svg" viewBox="0 0 512 512"><defs><style>.cls-1{fill:#fff;}</style></defs><title>white</title><rect x="27.1" y="27.03" width="458.11" height="458.11" rx="82.32" ry="82.32"/><path class="cls-1" d="M295.59,384.3v-24.6a102.6,102.6,0,0,1-71.84,0v24.6c-33.91,2.53-57.75,8.51-57.75,15.49,0,8.9,38.57,16.16,87.34,16.74,0.28,0,.56,0,0.84,0h11c0.28,0,.56,0,0.84,0,48.77-.58,87.34-7.84,87.34-16.74C353.34,392.81,329.5,386.83,295.59,384.3Z"/><path class="cls-1" d="M144.61,225.2a31.2,31.2,0,0,1-4.32,9.47,24.87,24.87,0,0,1-7.12,7l-5.54-8a20.5,20.5,0,0,0,8.09-11.33,6.65,6.65,0,0,0,.21-3.49,2.27,2.27,0,0,0-1.66-1.67l-0.11,0a2.19,2.19,0,0,0-1.16,0,2.94,2.94,0,0,0-1.19.78,11,11,0,0,0-1.4,1.76q-0.76,1.14-1.74,3-1.57,2.91-3.15,5.34a18.24,18.24,0,0,1-3.48,4,10.37,10.37,0,0,1-4.23,2.19,10.49,10.49,0,0,1-5.33-.23l-0.11,0a12.39,12.39,0,0,1-4.71-2.38,11.48,11.48,0,0,1-3.12-4.07,14.6,14.6,0,0,1-1.28-5.45,20.76,20.76,0,0,1,.79-6.53,29,29,0,0,1,3.74-8.55,23.31,23.31,0,0,1,5.81-6l6.16,7.46a22.61,22.61,0,0,0-4.35,4.69,17.08,17.08,0,0,0-2.45,5.15,5,5,0,0,0-.07,3.11,2.22,2.22,0,0,0,1.51,1.46l0.11,0a2.3,2.3,0,0,0,1.25,0,2.9,2.9,0,0,0,1.2-.81,11.83,11.83,0,0,0,1.39-1.83q0.77-1.19,1.76-3.07a48.77,48.77,0,0,1,3.33-5.56,18.65,18.65,0,0,1,3.6-3.94,9.75,9.75,0,0,1,4.14-2,10.6,10.6,0,0,1,5,.27l0.11,0a12.41,12.41,0,0,1,5,2.59,11.85,11.85,0,0,1,3.09,4.27,15,15,0,0,1,1.15,5.62A23.36,23.36,0,0,1,144.61,225.2Z"/><path class="cls-1" d="M158.08,194.57a18.51,18.51,0,0,1-4.5,5.14,15.84,15.84,0,0,1-5.54,2.8,14.6,14.6,0,0,1-6.15.31,17.16,17.16,0,0,1-6.3-2.38l-0.1-.06a17.36,17.36,0,0,1-4.84-4.28,15.7,15.7,0,0,1-2.74-5.47,15.23,15.23,0,0,1-.39-6.06,15.57,15.57,0,0,1,2.21-6.07,16.42,16.42,0,0,1,4.81-5.26,13.79,13.79,0,0,1,5.71-2.25,15.6,15.6,0,0,1,6.12.35,22,22,0,0,1,6.07,2.58l0.94,0.57c0.33,0.2.65,0.42,1,.65l-10.82,17.8a6.4,6.4,0,0,0,4.53,0,7.2,7.2,0,0,0,3.34-3.05,8.58,8.58,0,0,0,1.23-3.46,11.56,11.56,0,0,0-.35-4.08l7.42-2.56a16.77,16.77,0,0,1,1,7.13A17,17,0,0,1,158.08,194.57Zm-13.8-13.64a6.93,6.93,0,0,0-4.41-.66,4.84,4.84,0,0,0-3.21,2.35,4.6,4.6,0,0,0-.55,3.84,8.08,8.08,0,0,0,2.56,3.71Z"/><path class="cls-1" d="M178.09,170.15a16.12,16.12,0,0,1-22.95-.36l-0.08-.08a16,16,0,0,1-3.2-17.65,17.27,17.27,0,0,1,4-5.62,15.68,15.68,0,0,1,7.12-4.22,15.41,15.41,0,0,1,7.29,0l-1.52,9.13a9.74,9.74,0,0,0-3.46,0,6,6,0,0,0-3,1.69,5.54,5.54,0,0,0-1.38,2.09,5.9,5.9,0,0,0-.35,2.41,7.29,7.29,0,0,0,.6,2.46,7.62,7.62,0,0,0,1.52,2.25l0.08,0.08A8.24,8.24,0,0,0,165,164a7.07,7.07,0,0,0,2.47.74,5.77,5.77,0,0,0,2.45-.28,5.84,5.84,0,0,0,2.21-1.36,6,6,0,0,0,1.79-2.91,13,13,0,0,0,.29-3.56l8.94-1.25a17.16,17.16,0,0,1-.35,7.52A16.24,16.24,0,0,1,178.09,170.15Z"/><path class="cls-1" d="M198.21,154.74a10.12,10.12,0,0,1-8.34,1.08q-3.92-1.33-6.49-6l-9.75-17.88,9.65-5.26,8.07,14.8a5.66,5.66,0,0,0,2.92,2.86,4.06,4.06,0,0,0,3.43-.36,4.27,4.27,0,0,0,2.18-2.7,5.43,5.43,0,0,0-.75-4l-8.07-14.8,9.65-5.26,14.9,27.33L206,149.73l-2-3.74a15.25,15.25,0,0,1-1.59,4.8A9.63,9.63,0,0,1,198.21,154.74Z"/><path class="cls-1" d="M211.2,113.69l10.61-2.86,1.63,6.06a12.83,12.83,0,0,1,2.19-5.83,8.81,8.81,0,0,1,5.55-3.28l3,11.11-0.89.24a8.49,8.49,0,0,0-5.73,4.16q-1.56,3-.16,8.27l2.51,9.34-10.61,2.85Z"/><path class="cls-1" d="M237.4,96.61l11.39-1.17,0.82,8-11.39,1.17Zm1.34,10.79,10.93-1.12,3.18,31-10.93,1.12Z"/><path class="cls-1" d="M269.7,138.2q-5-.29-7.6-2.81t-2.3-8.09l0.74-12.64-3.68-.22,0.52-8.79,3.68,0.22L261.52,98l11,0.65L272,106.52l7.24,0.43-0.52,8.79-7.24-.43-0.62,10.51a3.2,3.2,0,0,0,.61,2.43,3.11,3.11,0,0,0,2.2.85,7.9,7.9,0,0,0,2.14-.16,12.47,12.47,0,0,0,2.05-.63l-0.5,8.56a14.87,14.87,0,0,1-3.47,1.09A16.73,16.73,0,0,1,269.7,138.2Z"/><path class="cls-1" d="M286.07,149.58a18.46,18.46,0,0,1-4.94-2.26,24.24,24.24,0,0,1-3.88-3.2l5.45-6.31a13.12,13.12,0,0,0,2.12,1.93,7,7,0,0,0,2,1,3.55,3.55,0,0,0,1.43.16,2.69,2.69,0,0,0,1.36-.64l-2.86-32.83,11,3.3,0.55,19.75,11-16.27L320,117.48l-19.67,25.81a34.42,34.42,0,0,1-3.37,3.82,11.9,11.9,0,0,1-3.27,2.29,8.92,8.92,0,0,1-3.54.8A13.38,13.38,0,0,1,286.07,149.58Z"/><path class="cls-1" d="M328,159.46a21.21,21.21,0,0,1-5.85-5.83,19.77,19.77,0,0,1-3-7.29,20.93,20.93,0,0,1,3.33-15.77l0.06-.1a21,21,0,0,1,13.34-8.94,20.24,20.24,0,0,1,8.05.06,22,22,0,0,1,7.93,3.42,24.33,24.33,0,0,1,4.33,3.66,19.37,19.37,0,0,1,2.87,4,18.51,18.51,0,0,1,1.65,4.34,22,22,0,0,1,.6,4.51l-10.6.68a14.53,14.53,0,0,0-1.21-5,9.42,9.42,0,0,0-3.44-3.85,9,9,0,0,0-3.68-1.48,9.32,9.32,0,0,0-3.78.19,10.66,10.66,0,0,0-3.55,1.7,11.88,11.88,0,0,0-2.91,3l-0.07.09a12.35,12.35,0,0,0-1.77,3.91,10.57,10.57,0,0,0-.27,3.95,9.29,9.29,0,0,0,1.23,3.58,8.93,8.93,0,0,0,2.75,2.87,11,11,0,0,0,2.55,1.31,8.69,8.69,0,0,0,2.52.49,12.64,12.64,0,0,0,2.54-.16,23,23,0,0,0,2.66-.6l3.61,9.66a30.22,30.22,0,0,1-4.63,1.25,18,18,0,0,1-4.8.22,20.08,20.08,0,0,1-5.07-1.13A24.17,24.17,0,0,1,328,159.46Z"/><path class="cls-1" d="M349,177.83a13,13,0,0,1-2.13-3.61,9.79,9.79,0,0,1-.66-3.73,8.47,8.47,0,0,1,.92-3.61,9.93,9.93,0,0,1,2.7-3.24l0.09-.07a9.67,9.67,0,0,1,3.87-2,8.35,8.35,0,0,1,3.93,0,11.32,11.32,0,0,1,3.85,1.81,18.37,18.37,0,0,1,3.65,3.48,22.58,22.58,0,0,1,2.35,3.47,23.44,23.44,0,0,1,1.44,3.09l0.4-.33a4.7,4.7,0,0,0,1.94-3.54,7,7,0,0,0-1.94-4.47,20.14,20.14,0,0,0-3.19-3.19,29.52,29.52,0,0,0-3.56-2.37l4.56-6.61a34.08,34.08,0,0,1,4.9,3.24,32.48,32.48,0,0,1,4.93,5,22.47,22.47,0,0,1,3.73,6.13,12,12,0,0,1,.81,5.46,9.86,9.86,0,0,1-1.62,4.62,19,19,0,0,1-4,4.22l-13.87,11.3-6.83-8.39,2.5-2A11.64,11.64,0,0,1,349,177.83Zm7.78-1.29a5.53,5.53,0,0,0,3.54,2.16,4.82,4.82,0,0,0,3.84-1.2l1.12-.91a10.12,10.12,0,0,0-.77-1.86,11.73,11.73,0,0,0-1.29-2,5.7,5.7,0,0,0-3.17-2.2,3.43,3.43,0,0,0-3,.76l-0.09.07a3,3,0,0,0-1.25,2.43A4.23,4.23,0,0,0,356.76,176.54Z"/><path class="cls-1" d="M394.35,184l3.6,10.39-4,1.4a15.34,15.34,0,0,1,4.49,2.4,9.71,9.71,0,0,1,3.22,4.72,10.63,10.63,0,0,1,.52,5.54A9.06,9.06,0,0,1,399.8,213a16,16,0,0,1,5,3,12.21,12.21,0,0,1,3.22,5.16,10.3,10.3,0,0,1-.23,8.37q-1.88,3.64-7,5.43l-19.3,6.7-3.6-10.38,16-5.55a5.72,5.72,0,0,0,3.29-2.35,3.91,3.91,0,0,0,.21-3.34,4.25,4.25,0,0,0-2.27-2.6,5.37,5.37,0,0,0-4.08.08l-16,5.55-3.6-10.38,16-5.55a5.71,5.71,0,0,0,3.29-2.36,3.9,3.9,0,0,0,.21-3.34,4.17,4.17,0,0,0-2.26-2.57,5.46,5.46,0,0,0-4.07.11l-16,5.55-3.6-10.38Z"/><path class="cls-1" d="M259.67,154.89A102.41,102.41,0,1,0,362.08,257.3,102.41,102.41,0,0,0,259.67,154.89Zm24,174.4a75.89,75.89,0,1,1,51.84-72A75.66,75.66,0,0,1,283.71,329.29Z"/><circle class="cls-1" cx="234.05" cy="237.44" r="25.61"/></svg>