<svg id="Layer_1" data-name="Layer 1" xmlns="http://www.w3.org/2000/svg" viewBox="0 0 512 512"><title>black</title><path d="M400.48,486.17H111.82a85.85,85.85,0,0,1-85.76-85.76V111.75A85.85,85.85,0,0,1,111.82,26H400.48a85.85,85.85,0,0,1,85.76,85.76V400.42A85.85,85.85,0,0,1,400.48,486.17ZM111.82,35.58a76.26,76.26,0,0,0-76.17,76.17V400.42a76.26,76.26,0,0,0,76.17,76.17H400.48a76.26,76.26,0,0,0,76.17-76.17V111.75a76.26,76.26,0,0,0-76.17-76.17H111.82Z"/><path d="M294.94,382.2V358a100.91,100.91,0,0,1-70.66,0v24.2c-33.35,2.49-56.81,8.37-56.81,15.23,0,8.75,37.94,15.89,85.91,16.46,0.28,0,.55,0,0.83,0H265c0.28,0,.55,0,0.83,0,48-.57,85.91-7.71,85.91-16.46C351.75,390.57,328.29,384.68,294.94,382.2Z"/><path d="M146.44,225.71a30.69,30.69,0,0,1-4.25,9.31,24.46,24.46,0,0,1-7,6.86l-5.45-7.82a20.17,20.17,0,0,0,8-11.15,6.54,6.54,0,0,0,.2-3.43,2.23,2.23,0,0,0-1.63-1.65l-0.11,0a2.15,2.15,0,0,0-1.14,0,2.89,2.89,0,0,0-1.17.77,10.78,10.78,0,0,0-1.38,1.73q-0.74,1.12-1.72,3-1.54,2.86-3.1,5.25a17.94,17.94,0,0,1-3.42,4,10.2,10.2,0,0,1-4.16,2.16,10.32,10.32,0,0,1-5.24-.23l-0.11,0A12.19,12.19,0,0,1,110.1,232a11.29,11.29,0,0,1-3.07-4,14.36,14.36,0,0,1-1.26-5.36,20.41,20.41,0,0,1,.78-6.42,28.49,28.49,0,0,1,3.68-8.41,22.92,22.92,0,0,1,5.71-5.92l6.06,7.34a22.24,22.24,0,0,0-4.28,4.61,16.8,16.8,0,0,0-2.41,5.06,5,5,0,0,0-.07,3.06,2.18,2.18,0,0,0,1.48,1.43l0.11,0a2.26,2.26,0,0,0,1.23,0,2.85,2.85,0,0,0,1.18-.79,11.64,11.64,0,0,0,1.37-1.8q0.76-1.17,1.73-3a48,48,0,0,1,3.28-5.47,18.35,18.35,0,0,1,3.54-3.88,9.59,9.59,0,0,1,4.07-1.94,10.43,10.43,0,0,1,4.87.27l0.11,0a12.2,12.2,0,0,1,4.93,2.54,11.66,11.66,0,0,1,3,4.2,14.74,14.74,0,0,1,1.13,5.53A23,23,0,0,1,146.44,225.71Z"/><path d="M159.69,195.58a18.21,18.21,0,0,1-4.43,5.06,15.58,15.58,0,0,1-5.45,2.75,14.36,14.36,0,0,1-6,.3,16.88,16.88,0,0,1-6.19-2.34l-0.1-.06a17.07,17.07,0,0,1-4.76-4.21,15.44,15.44,0,0,1-2.69-5.38,15,15,0,0,1-.38-6,15.31,15.31,0,0,1,2.17-6,16.15,16.15,0,0,1,4.73-5.17,13.56,13.56,0,0,1,5.62-2.22,15.34,15.34,0,0,1,6,.34,21.6,21.6,0,0,1,6,2.54l0.92,0.56c0.32,0.2.63,0.41,0.94,0.64L145.37,194a6.3,6.3,0,0,0,4.46,0,7.08,7.08,0,0,0,3.28-3,8.44,8.44,0,0,0,1.21-3.41,11.37,11.37,0,0,0-.34-4l7.29-2.52a16.5,16.5,0,0,1,1,7A16.75,16.75,0,0,1,159.69,195.58Zm-13.57-13.41a6.81,6.81,0,0,0-4.34-.65,4.76,4.76,0,0,0-3.16,2.32,4.52,4.52,0,0,0-.54,3.78,8,8,0,0,0,2.52,3.65Z"/><path d="M179.37,171.56a15.86,15.86,0,0,1-22.57-.36l-0.08-.08a15.73,15.73,0,0,1-3.15-17.36,17,17,0,0,1,3.91-5.53,15.42,15.42,0,0,1,7-4.15,15.16,15.16,0,0,1,7.17,0l-1.5,9a9.58,9.58,0,0,0-3.4,0,5.9,5.9,0,0,0-3,1.66,5.45,5.45,0,0,0-1.36,2.06,5.8,5.8,0,0,0-.35,2.37,7.17,7.17,0,0,0,.59,2.41,7.49,7.49,0,0,0,1.5,2.21l0.08,0.08a8.1,8.1,0,0,0,2.23,1.67,7,7,0,0,0,2.43.73,5.67,5.67,0,0,0,2.41-.27,5.75,5.75,0,0,0,2.17-1.34,5.94,5.94,0,0,0,1.76-2.87,12.8,12.8,0,0,0,.29-3.5l8.79-1.23a16.88,16.88,0,0,1-.34,7.4A16,16,0,0,1,179.37,171.56Z"/><path d="M199.16,156.41a10,10,0,0,1-8.21,1.06q-3.86-1.31-6.38-5.93L175,133.94l9.49-5.18,7.94,14.56a5.57,5.57,0,0,0,2.87,2.82,4,4,0,0,0,3.37-.35,4.2,4.2,0,0,0,2.15-2.65,5.34,5.34,0,0,0-.74-4l-7.94-14.56,9.49-5.18,14.66,26.88-9.49,5.18-2-3.68a15,15,0,0,1-1.56,4.72A9.47,9.47,0,0,1,199.16,156.41Z"/><path d="M211.94,116l10.44-2.81,1.6,6a12.62,12.62,0,0,1,2.15-5.74,8.67,8.67,0,0,1,5.46-3.23l2.94,10.93-0.88.24a8.35,8.35,0,0,0-5.64,4.1q-1.54,3-.16,8.13l2.47,9.18-10.44,2.81Z"/><path d="M237.7,99.22l11.2-1.15,0.81,7.88-11.21,1.15ZM239,109.84l10.75-1.1,3.12,30.46-10.75,1.1Z"/><path d="M269.48,140.13q-4.89-.29-7.47-2.77t-2.27-8L260.47,117l-3.62-.21,0.51-8.64,3.62,0.21,0.46-7.74,10.79,0.64L271.77,109l7.12,0.42L278.38,118l-7.12-.42L270.65,128a3.15,3.15,0,0,0,.6,2.39,3.06,3.06,0,0,0,2.16.84,7.77,7.77,0,0,0,2.11-.16,12.27,12.27,0,0,0,2-.62l-0.5,8.42a14.63,14.63,0,0,1-3.41,1.07A16.46,16.46,0,0,1,269.48,140.13Z"/><path d="M285.58,151.32a18.15,18.15,0,0,1-4.86-2.22,23.84,23.84,0,0,1-3.81-3.15l5.36-6.21a12.91,12.91,0,0,0,2.09,1.9,6.86,6.86,0,0,0,1.94,1,3.49,3.49,0,0,0,1.4.15,2.65,2.65,0,0,0,1.34-.63l-2.81-32.29L297,113.15l0.54,19.43,10.85-16L319,119.76l-19.34,25.39a33.85,33.85,0,0,1-3.32,3.76,11.71,11.71,0,0,1-3.22,2.25,8.77,8.77,0,0,1-3.49.78A13.16,13.16,0,0,1,285.58,151.32Z"/><path d="M326.84,161a20.87,20.87,0,0,1-5.75-5.74,19.44,19.44,0,0,1-3-7.17,20.58,20.58,0,0,1,3.28-15.51l0.06-.1a20.7,20.7,0,0,1,13.12-8.79,19.9,19.9,0,0,1,7.92.06,21.61,21.61,0,0,1,7.8,3.36,23.93,23.93,0,0,1,4.26,3.6,19.05,19.05,0,0,1,2.82,4A18.2,18.2,0,0,1,359,139a21.65,21.65,0,0,1,.59,4.43l-10.43.67a14.29,14.29,0,0,0-1.19-4.91,9.26,9.26,0,0,0-3.38-3.79,8.81,8.81,0,0,0-3.62-1.46,9.17,9.17,0,0,0-3.71.19,10.49,10.49,0,0,0-3.49,1.67,11.69,11.69,0,0,0-2.87,3l-0.06.09a12.14,12.14,0,0,0-1.74,3.84,10.39,10.39,0,0,0-.27,3.88,9.14,9.14,0,0,0,1.21,3.52,8.78,8.78,0,0,0,2.71,2.82,10.82,10.82,0,0,0,2.51,1.29,8.55,8.55,0,0,0,2.48.48,12.43,12.43,0,0,0,2.5-.16,22.59,22.59,0,0,0,2.62-.59l3.55,9.51a29.73,29.73,0,0,1-4.55,1.23,17.75,17.75,0,0,1-4.73.22,19.75,19.75,0,0,1-5-1.12A23.77,23.77,0,0,1,326.84,161Z"/><path d="M347.46,179.11a12.82,12.82,0,0,1-2.09-3.55,9.63,9.63,0,0,1-.65-3.67,8.33,8.33,0,0,1,.91-3.55,9.77,9.77,0,0,1,2.66-3.19l0.09-.07a9.51,9.51,0,0,1,3.8-2,8.22,8.22,0,0,1,3.86,0,11.14,11.14,0,0,1,3.78,1.78,18.06,18.06,0,0,1,3.59,3.43,22.21,22.21,0,0,1,2.31,3.41,23.06,23.06,0,0,1,1.42,3l0.4-.32a4.62,4.62,0,0,0,1.91-3.49,6.92,6.92,0,0,0-1.9-4.4,19.81,19.81,0,0,0-3.14-3.14,29,29,0,0,0-3.5-2.33l4.49-6.5a33.52,33.52,0,0,1,4.82,3.19A31.94,31.94,0,0,1,375,162.7a22.1,22.1,0,0,1,3.67,6,11.8,11.8,0,0,1,.8,5.37,9.7,9.7,0,0,1-1.59,4.55,18.72,18.72,0,0,1-3.89,4.15l-13.65,11.12-6.72-8.25,2.46-2A11.45,11.45,0,0,1,347.46,179.11Zm7.65-1.27a5.44,5.44,0,0,0,3.48,2.12,4.74,4.74,0,0,0,3.78-1.18l1.1-.89a10,10,0,0,0-.76-1.83,11.53,11.53,0,0,0-1.27-1.92,5.61,5.61,0,0,0-3.12-2.17,3.38,3.38,0,0,0-2.93.74l-0.09.07a3,3,0,0,0-1.23,2.39A4.16,4.16,0,0,0,355.11,177.84Z"/><path d="M392.08,185.17l3.55,10.22-4,1.37a15.09,15.09,0,0,1,4.41,2.36,9.56,9.56,0,0,1,3.17,4.65,10.46,10.46,0,0,1,.51,5.45,8.91,8.91,0,0,1-2.33,4.52,15.77,15.77,0,0,1,4.9,3,12,12,0,0,1,3.17,5.07,10.13,10.13,0,0,1-.23,8.23q-1.85,3.58-6.92,5.34l-19,6.59-3.54-10.21,15.72-5.46A5.63,5.63,0,0,0,394.8,224a3.84,3.84,0,0,0,.21-3.29,4.18,4.18,0,0,0-2.23-2.56,5.28,5.28,0,0,0-4,.08L373,223.66l-3.55-10.21L385.21,208a5.62,5.62,0,0,0,3.24-2.32,3.84,3.84,0,0,0,.21-3.28,4.11,4.11,0,0,0-2.23-2.53,5.37,5.37,0,0,0-4,.11l-15.72,5.46-3.55-10.21Z"/><path d="M259.61,156.55A100.73,100.73,0,1,0,360.34,257.28,100.73,100.73,0,0,0,259.61,156.55Zm23.64,171.54a74.64,74.64,0,1,1,51-70.81A74.42,74.42,0,0,1,283.26,328.09Z"/><circle cx="234.42" cy="237.74" r="25.19"/></svg>