<svg id="Layer_1" data-name="Layer 1" xmlns="http://www.w3.org/2000/svg" viewBox="0 0 512 512"><defs><style>.cls-1{fill:#999;}.cls-2{fill:#fff;}</style></defs><title>gray</title><rect class="cls-1" x="21.07" y="21" width="470.18" height="470.18" rx="84.48" ry="84.48"/><path class="cls-2" d="M296.62,387.68V362.42a105.3,105.3,0,0,1-73.73,0v25.25c-34.8,2.59-59.28,8.73-59.28,15.89,0,9.13,39.59,16.58,89.64,17.18,0.29,0,.58,0,0.86,0h11.26c0.29,0,.58,0,0.86,0,50.05-.6,89.64-8,89.64-17.18C355.9,396.41,331.43,390.27,296.62,387.68Z"/><path class="cls-2" d="M141.67,224.39a32,32,0,0,1-4.43,9.72,25.52,25.52,0,0,1-7.31,7.16l-5.69-8.16a21,21,0,0,0,8.31-11.63,6.82,6.82,0,0,0,.21-3.58,2.33,2.33,0,0,0-1.7-1.72l-0.11,0a2.25,2.25,0,0,0-1.19,0,3,3,0,0,0-1.22.8,11.25,11.25,0,0,0-1.44,1.81q-0.78,1.17-1.79,3.1-1.61,3-3.23,5.48a18.72,18.72,0,0,1-3.57,4.14,10.65,10.65,0,0,1-4.34,2.25,10.76,10.76,0,0,1-5.47-.24l-0.11,0a12.72,12.72,0,0,1-4.83-2.45,11.78,11.78,0,0,1-3.2-4.18,15,15,0,0,1-1.32-5.59,21.3,21.3,0,0,1,.81-6.7,29.72,29.72,0,0,1,3.84-8.78,23.92,23.92,0,0,1,6-6.18l6.33,7.66a23.21,23.21,0,0,0-4.46,4.81,17.53,17.53,0,0,0-2.51,5.28,5.17,5.17,0,0,0-.07,3.19,2.28,2.28,0,0,0,1.55,1.49l0.11,0a2.36,2.36,0,0,0,1.28,0,3,3,0,0,0,1.23-.83,12.15,12.15,0,0,0,1.43-1.88q0.79-1.22,1.81-3.15a50.06,50.06,0,0,1,3.42-5.71,19.14,19.14,0,0,1,3.7-4,10,10,0,0,1,4.25-2,10.88,10.88,0,0,1,5.09.28l0.11,0a12.73,12.73,0,0,1,5.14,2.65,12.16,12.16,0,0,1,3.17,4.38,15.38,15.38,0,0,1,1.18,5.77A24,24,0,0,1,141.67,224.39Z"/><path class="cls-2" d="M155.49,192.95a19,19,0,0,1-4.62,5.28,16.26,16.26,0,0,1-5.68,2.87,15,15,0,0,1-6.31.31,17.61,17.61,0,0,1-6.46-2.44l-0.1-.06a17.82,17.82,0,0,1-5-4.4,16.11,16.11,0,0,1-2.81-5.61,15.63,15.63,0,0,1-.4-6.22,16,16,0,0,1,2.26-6.23,16.85,16.85,0,0,1,4.94-5.39,14.15,14.15,0,0,1,5.86-2.31,16,16,0,0,1,6.28.36,22.54,22.54,0,0,1,6.23,2.65l1,0.58c0.34,0.21.66,0.43,1,.66l-11.1,18.27a6.57,6.57,0,0,0,4.65,0,7.39,7.39,0,0,0,3.43-3.13,8.8,8.8,0,0,0,1.26-3.55,11.87,11.87,0,0,0-.36-4.19l7.61-2.63a17.22,17.22,0,0,1,1.08,7.32A17.48,17.48,0,0,1,155.49,192.95Zm-14.16-14a7.11,7.11,0,0,0-4.53-.68,5,5,0,0,0-3.3,2.42,4.72,4.72,0,0,0-.57,3.94,8.29,8.29,0,0,0,2.63,3.81Z"/><path class="cls-2" d="M176,167.88a16.55,16.55,0,0,1-23.55-.37l-0.08-.08a16.42,16.42,0,0,1-3.29-18.11,17.73,17.73,0,0,1,4.08-5.77,16.09,16.09,0,0,1,7.31-4.33,15.82,15.82,0,0,1,7.48,0l-1.56,9.37a10,10,0,0,0-3.55,0,6.16,6.16,0,0,0-3.08,1.74,5.69,5.69,0,0,0-1.42,2.15,6.06,6.06,0,0,0-.36,2.48,7.49,7.49,0,0,0,.62,2.52,7.82,7.82,0,0,0,1.56,2.31l0.08,0.08a8.46,8.46,0,0,0,2.33,1.74,7.26,7.26,0,0,0,2.53.76,5.92,5.92,0,0,0,2.51-.29,6,6,0,0,0,2.26-1.4,6.2,6.2,0,0,0,1.83-3A13.35,13.35,0,0,0,172,154l9.17-1.28a17.61,17.61,0,0,1-.36,7.72A16.67,16.67,0,0,1,176,167.88Z"/><path class="cls-2" d="M196.69,152.07q-4.53,2.47-8.56,1.1T181.47,147l-10-18.35,9.9-5.4,8.29,15.19a5.81,5.81,0,0,0,3,2.94,4.17,4.17,0,0,0,3.52-.37,4.39,4.39,0,0,0,2.24-2.77,5.57,5.57,0,0,0-.77-4.15l-8.29-15.19,9.9-5.4,15.3,28-9.9,5.4-2.09-3.84a15.65,15.65,0,0,1-1.63,4.93A9.89,9.89,0,0,1,196.69,152.07Z"/><path class="cls-2" d="M210,109.94L220.91,107l1.67,6.22a13.17,13.17,0,0,1,2.24-6,9,9,0,0,1,5.7-3.37l3.07,11.4-0.91.25a8.71,8.71,0,0,0-5.88,4.27q-1.6,3.12-.16,8.48l2.58,9.58-10.89,2.93Z"/><path class="cls-2" d="M236.9,92.4l11.69-1.2,0.84,8.23-11.69,1.2Zm1.37,11.08,11.22-1.15,3.26,31.79-11.22,1.15Z"/><path class="cls-2" d="M270.05,135.09q-5.1-.3-7.8-2.89t-2.37-8.3l0.76-13-3.77-.22,0.53-9,3.77,0.22,0.48-8.08,11.26,0.66-0.48,8.07,7.43,0.44-0.53,9-7.43-.44-0.64,10.79a3.28,3.28,0,0,0,.62,2.49,3.19,3.19,0,0,0,2.26.87,8.11,8.11,0,0,0,2.2-.17,12.8,12.8,0,0,0,2.11-.65l-0.52,8.78a15.26,15.26,0,0,1-3.56,1.12A17.17,17.17,0,0,1,270.05,135.09Z"/><path class="cls-2" d="M286.86,146.77a18.94,18.94,0,0,1-5.07-2.32,24.88,24.88,0,0,1-4-3.28l5.59-6.48a13.47,13.47,0,0,0,2.18,2,7.16,7.16,0,0,0,2,1.07,3.64,3.64,0,0,0,1.46.16,2.76,2.76,0,0,0,1.4-.66l-2.94-33.69,11.25,3.39,0.56,20.28,11.32-16.7,11,3.32L301.5,140.32a35.33,35.33,0,0,1-3.46,3.92,12.22,12.22,0,0,1-3.36,2.35,9.15,9.15,0,0,1-3.64.82A13.73,13.73,0,0,1,286.86,146.77Z"/><path class="cls-2" d="M329.91,156.92a21.77,21.77,0,0,1-6-6,20.29,20.29,0,0,1-3.1-7.48,21.48,21.48,0,0,1,3.42-16.19l0.06-.1A21.6,21.6,0,0,1,338,118a20.77,20.77,0,0,1,8.27.06,22.55,22.55,0,0,1,8.14,3.51,25,25,0,0,1,4.45,3.76,19.88,19.88,0,0,1,2.95,4.13,19,19,0,0,1,1.69,4.46,22.59,22.59,0,0,1,.62,4.62l-10.88.7a14.91,14.91,0,0,0-1.24-5.12,9.67,9.67,0,0,0-3.53-4,9.2,9.2,0,0,0-3.78-1.52,9.57,9.57,0,0,0-3.87.2,10.94,10.94,0,0,0-3.64,1.74,12.2,12.2,0,0,0-3,3.11l-0.07.1a12.67,12.67,0,0,0-1.82,4,10.85,10.85,0,0,0-.28,4.05,9.54,9.54,0,0,0,1.26,3.67,9.16,9.16,0,0,0,2.82,2.94,11.29,11.29,0,0,0,2.62,1.34,8.92,8.92,0,0,0,2.58.5,13,13,0,0,0,2.61-.16,23.57,23.57,0,0,0,2.73-.61l3.7,9.92a31,31,0,0,1-4.75,1.28,18.52,18.52,0,0,1-4.93.23,20.6,20.6,0,0,1-5.2-1.16A24.81,24.81,0,0,1,329.91,156.92Z"/><path class="cls-2" d="M351.42,175.76a13.37,13.37,0,0,1-2.18-3.71,10.05,10.05,0,0,1-.68-3.83,8.69,8.69,0,0,1,.95-3.7,10.19,10.19,0,0,1,2.77-3.33l0.09-.08a9.93,9.93,0,0,1,4-2.05,8.57,8.57,0,0,1,4,0,11.62,11.62,0,0,1,3.95,1.85,18.85,18.85,0,0,1,3.75,3.57,23.17,23.17,0,0,1,2.41,3.56,24.06,24.06,0,0,1,1.48,3.17l0.41-.34a4.82,4.82,0,0,0,2-3.64,7.22,7.22,0,0,0-2-4.59,20.67,20.67,0,0,0-3.28-3.27,30.29,30.29,0,0,0-3.66-2.43l4.68-6.78a35,35,0,0,1,5,3.33,33.33,33.33,0,0,1,5.06,5.13,23.06,23.06,0,0,1,3.83,6.29,12.31,12.31,0,0,1,.83,5.6,10.12,10.12,0,0,1-1.66,4.74,19.54,19.54,0,0,1-4.05,4.33l-14.24,11.6-7-8.61,2.57-2.09A11.95,11.95,0,0,1,351.42,175.76Zm8-1.32a5.67,5.67,0,0,0,3.63,2.22,5,5,0,0,0,3.94-1.23l1.15-.93a10.39,10.39,0,0,0-.79-1.91,12,12,0,0,0-1.33-2,5.85,5.85,0,0,0-3.25-2.26,3.52,3.52,0,0,0-3.06.78l-0.09.08a3.12,3.12,0,0,0-1.28,2.49A4.34,4.34,0,0,0,359.41,174.44Z"/><path class="cls-2" d="M398,182.09l3.7,10.66-4.13,1.43a15.75,15.75,0,0,1,4.61,2.46,10,10,0,0,1,3.31,4.85,10.91,10.91,0,0,1,.54,5.69,9.3,9.3,0,0,1-2.43,4.71A16.46,16.46,0,0,1,408.7,215,12.54,12.54,0,0,1,412,220.3a10.57,10.57,0,0,1-.24,8.59q-1.93,3.73-7.22,5.57l-19.81,6.88L381,230.68l16.4-5.69a5.87,5.87,0,0,0,3.38-2.42,4,4,0,0,0,.21-3.43,4.37,4.37,0,0,0-2.33-2.67,5.51,5.51,0,0,0-4.19.09l-16.4,5.69-3.7-10.66,16.4-5.69a5.86,5.86,0,0,0,3.38-2.42,4,4,0,0,0,.22-3.43,4.28,4.28,0,0,0-2.32-2.64,5.61,5.61,0,0,0-4.18.11l-16.4,5.7-3.7-10.66Z"/><path class="cls-2" d="M259.76,152.23A105.11,105.11,0,1,0,364.87,257.33,105.11,105.11,0,0,0,259.76,152.23Zm24.67,179a77.89,77.89,0,1,1,53.2-73.88A77.66,77.66,0,0,1,284.43,331.22Z"/><circle class="cls-2" cx="233.47" cy="236.95" r="26.29"/></svg>