<svg id="Layer_1" data-name="Layer 1" xmlns="http://www.w3.org/2000/svg" viewBox="0 0 22 22"><defs><style>.cls-1{fill:#066;}.cls-2{fill:#fff;}</style></defs><title>icon_22x22</title><rect class="cls-1" x="1" y="1" width="20" height="20" rx="3.59" ry="3.59"/><path class="cls-2" d="M12.75,15.8V14.6a5,5,0,0,1-3.5,0v1.2c-1.65.12-2.81,0.41-2.81,0.75s1.88,0.79,4.25.81h0.62c2.37,0,4.25-.38,4.25-0.81S14.4,15.92,12.75,15.8Z"/><path class="cls-2" d="M11,4.63a5,5,0,1,0,5,5A5,5,0,0,0,11,4.63Zm1.17,8.49a3.69,3.69,0,1,1,2.52-3.5A3.68,3.68,0,0,1,12.17,13.12Z"/><circle class="cls-2" cx="9.75" cy="8.65" r="1.25"/></svg>