<svg id="Layer_1" data-name="Layer 1" xmlns="http://www.w3.org/2000/svg" viewBox="0 0 256 256"><defs><style>.cls-1{fill:#066;}.cls-2{fill:#fff;}</style></defs><title>icon_256x256</title><rect class="cls-1" x="12.66" y="12.66" width="230.68" height="230.68" rx="41.45" ry="41.45"/><path class="cls-2" d="M148.17,183.36V169.54a57.62,57.62,0,0,1-40.34,0v13.82c-19,1.42-32.44,4.78-32.44,8.7,0,5,21.66,9.07,49.05,9.4l0.47,0h6.16l0.47,0c27.39-.33,49.05-4.4,49.05-9.4C180.61,188.14,167.22,184.78,148.17,183.36Z"/><path class="cls-2" d="M128,54.52A57.51,57.51,0,1,0,185.51,112,57.51,57.51,0,0,0,128,54.52Zm13.5,97.94A42.62,42.62,0,1,1,170.61,112,42.49,42.49,0,0,1,141.5,152.46Z"/><circle class="cls-2" cx="113.62" cy="100.88" r="14.38"/></svg>