<svg id="Layer_1" data-name="Layer 1" xmlns="http://www.w3.org/2000/svg" viewBox="0 0 16 16"><defs><style>.cls-1{fill:#066;}.cls-2{fill:#fff;}</style></defs><title>icon_16x16</title><rect class="cls-1" x="0.92" y="0.92" width="14.17" height="14.17" rx="2.55" ry="2.55"/><path class="cls-2" d="M9.24,11.4V10.55a3.54,3.54,0,0,1-2.48,0V11.4c-1.17.09-2,.29-2,0.53s1.33,0.56,3,.58H8.22c1.68,0,3-.27,3-0.58S10.41,11.49,9.24,11.4Z"/><path class="cls-2" d="M8,3.49A3.53,3.53,0,1,0,11.53,7,3.53,3.53,0,0,0,8,3.49Zm0.83,6A2.62,2.62,0,1,1,10.62,7,2.61,2.61,0,0,1,8.83,9.5Z"/><circle class="cls-2" cx="7.12" cy="6.33" r="0.88"/></svg>