<svg id="Layer_1" data-name="Layer 1" xmlns="http://www.w3.org/2000/svg" viewBox="0 0 512 512"><title>logomark_black</title><path d="M404.49,492.79h-297a88.4,88.4,0,0,1-88.3-88.3v-297a88.4,88.4,0,0,1,88.3-88.3h297a88.4,88.4,0,0,1,88.3,88.3v297A88.4,88.4,0,0,1,404.49,492.79Zm-297-463.59a78.39,78.39,0,0,0-78.3,78.3v297a78.39,78.39,0,0,0,78.3,78.3h297a78.39,78.39,0,0,0,78.3-78.3v-297a78.39,78.39,0,0,0-78.3-78.3h-297Z"/><path d="M296.54,367.25V339.48a115.8,115.8,0,0,1-81.08,0v27.77c-38.27,2.85-65.18,9.6-65.18,17.48,0,10,43.54,18.23,98.58,18.89,0.32,0,.63,0,1,0h12.38c0.32,0,.63,0,1,0,55-.66,98.58-8.85,98.58-18.89C361.72,376.86,334.81,370.1,296.54,367.25Z"/><path d="M256,108.33A115.58,115.58,0,1,0,371.58,223.91,115.58,115.58,0,0,0,256,108.33Zm27.13,196.83a85.65,85.65,0,1,1,58.51-81.25A85.4,85.4,0,0,1,283.13,305.16Z"/><circle cx="227.09" cy="201.5" r="28.91"/></svg>