<svg id="Layer_1" data-name="Layer 1" xmlns="http://www.w3.org/2000/svg" viewBox="0 0 512 512"><defs><style>.cls-1{fill:#fff;}</style></defs><title>logomark_white</title><rect x="22.56" y="22.56" width="466.89" height="466.89" rx="83.89" ry="83.89"/><path class="cls-1" d="M296.83,368v-28a116.62,116.62,0,0,1-81.66,0v28c-38.54,2.87-65.65,9.67-65.65,17.6,0,10.12,43.85,18.36,99.28,19,0.32,0,.64,0,1,0h12.47c0.32,0,.64,0,1,0,55.44-.66,99.28-8.91,99.28-19C362.48,377.72,335.37,370.92,296.83,368Z"/><path class="cls-1" d="M256,107.28A116.41,116.41,0,1,0,372.41,223.68,116.41,116.41,0,0,0,256,107.28Zm27.33,198.24a86.26,86.26,0,1,1,58.92-81.83A86,86,0,0,1,283.33,305.51Z"/><circle class="cls-1" cx="226.89" cy="201.11" r="29.11"/></svg>