<svg id="Layer_1" data-name="Layer 1" xmlns="http://www.w3.org/2000/svg" viewBox="0 0 128 128"><defs><style>.cls-1{fill:#066;}.cls-2{fill:#fff;}</style></defs><title>icon_128x128</title><rect class="cls-1" x="5.58" y="5.58" width="116.85" height="116.85" rx="21" ry="21"/><path class="cls-2" d="M74.22,92V85a29.19,29.19,0,0,1-20.44,0v7c-9.65.72-16.43,2.42-16.43,4.41,0,2.53,11,4.6,24.85,4.76h3.6C79.67,101,90.65,99,90.65,96.45,90.65,94.46,83.86,92.76,74.22,92Z"/><path class="cls-2" d="M64,26.78A29.13,29.13,0,1,0,93.13,55.91,29.13,29.13,0,0,0,64,26.78Zm6.84,49.61A21.59,21.59,0,1,1,85.59,55.91,21.53,21.53,0,0,1,70.84,76.39Z"/><circle class="cls-2" cx="56.71" cy="50.26" r="7.29"/></svg>