<svg id="Layer_1" data-name="Layer 1" xmlns="http://www.w3.org/2000/svg" viewBox="0 0 32 32"><defs><style>.cls-1{fill:#066;}.cls-2{fill:#fff;}</style></defs><title>icon_32x32</title><rect class="cls-1" x="1.3" y="1.3" width="29.41" height="29.41" rx="5.28" ry="5.28"/><path class="cls-2" d="M18.57,23.06V21.3a7.35,7.35,0,0,1-5.14,0v1.76c-2.43.18-4.14,0.61-4.14,1.11s2.76,1.16,6.25,1.2h0.91c3.49,0,6.25-.56,6.25-1.2S21,23.24,18.57,23.06Z"/><path class="cls-2" d="M16,6.63A7.33,7.33,0,1,0,23.33,14,7.33,7.33,0,0,0,16,6.63Zm1.72,12.49A5.43,5.43,0,1,1,21.43,14,5.42,5.42,0,0,1,17.72,19.12Z"/><circle class="cls-2" cx="14.17" cy="12.54" r="1.83"/></svg>