<svg id="Layer_1" data-name="Layer 1" xmlns="http://www.w3.org/2000/svg" viewBox="0 0 64 64"><defs><style>.cls-1{fill:#066;}.cls-2{fill:#fff;}</style></defs><title>icon_64x64</title><rect class="cls-1" x="2.7" y="2.7" width="58.59" height="58.59" rx="10.53" ry="10.53"/><path class="cls-2" d="M37.12,46.06V42.55a14.64,14.64,0,0,1-10.25,0v3.51c-4.84.36-8.24,1.21-8.24,2.21,0,1.27,5.5,2.3,12.46,2.39H32.9c7-.08,12.46-1.12,12.46-2.39C45.36,47.28,42,46.42,37.12,46.06Z"/><path class="cls-2" d="M32,13.34A14.61,14.61,0,1,0,46.61,27.94,14.61,14.61,0,0,0,32,13.34Zm3.43,24.88a10.83,10.83,0,1,1,7.39-10.27A10.79,10.79,0,0,1,35.43,38.21Z"/><circle class="cls-2" cx="28.35" cy="25.11" r="3.65"/></svg>