<svg id="Layer_1" data-name="Layer 1" xmlns="http://www.w3.org/2000/svg" viewBox="0 0 48 48"><defs><style>.cls-1{fill:#066;}.cls-2{fill:#fff;}</style></defs><title>icon_48x48</title><rect class="cls-1" x="1.87" y="1.87" width="44.26" height="44.26" rx="7.95" ry="7.95"/><path class="cls-2" d="M27.87,34.62V32a11.06,11.06,0,0,1-7.74,0v2.65c-3.65.27-6.22,0.92-6.22,1.67,0,1,4.16,1.74,9.41,1.8h1.36c5.26-.06,9.41-0.84,9.41-1.8C34.09,35.54,31.52,34.89,27.87,34.62Z"/><path class="cls-2" d="M24,9.9a11,11,0,1,0,11,11A11,11,0,0,0,24,9.9Zm2.59,18.79a8.18,8.18,0,1,1,5.59-7.76A8.15,8.15,0,0,1,26.59,28.69Z"/><circle class="cls-2" cx="21.24" cy="18.8" r="2.76"/></svg>