<svg id="Layer_1" data-name="Layer 1" xmlns="http://www.w3.org/2000/svg" viewBox="0 0 512 512"><defs><style>.cls-1{fill:#066;}.cls-2{fill:#fff;}</style></defs><title>icon</title><rect class="cls-1" x="23.34" y="23.34" width="465.31" height="465.31" rx="83.61" ry="83.61"/><path class="cls-2" d="M296.69,367.67V339.79a116.23,116.23,0,0,1-81.38,0v27.87c-38.41,2.86-65.43,9.64-65.43,17.54,0,10.08,43.7,18.3,98.95,19,0.32,0,.64,0,1,0h12.43c0.32,0,.64,0,1,0,55.25-.66,98.95-8.88,98.95-19C362.12,377.31,335.1,370.53,296.69,367.67Z"/><path class="cls-2" d="M256,107.78a116,116,0,1,0,116,116A116,116,0,0,0,256,107.78Zm27.23,197.57A86,86,0,1,1,342,223.79,85.72,85.72,0,0,1,283.23,305.35Z"/><circle class="cls-2" cx="226.98" cy="201.29" r="29.02"/></svg>